<?xml version="1.0" standalone="no"?>
<!DOCTYPE svg PUBLIC "-//W3C//DTD SVG 20010904//EN"
 "http://www.w3.org/TR/2001/REC-SVG-20010904/DTD/svg10.dtd">
<svg version="1.0" xmlns="http://www.w3.org/2000/svg"
 width="500.000000pt" height="500.000000pt" viewBox="0 0 500.000000 500.000000"
 preserveAspectRatio="xMidYMid meet">

<g transform="translate(0.000000,500.000000) scale(0.100000,-0.100000)"
fill="#000000" stroke="none">
<path d="M1890 4571 c-91 -19 -177 -47 -250 -81 -189 -88 -345 -247 -451 -460
-49 -99 -83 -212 -110 -360 -13 -73 -13 -456 0 -545 19 -122 31 -189 40 -225
5 -19 17 -64 27 -100 19 -73 71 -234 84 -265 5 -11 18 -42 29 -70 46 -121 131
-297 199 -413 23 -40 42 -75 42 -78 0 -3 10 -20 23 -37 12 -18 30 -47 40 -65
10 -19 22 -39 28 -46 5 -6 41 -56 80 -111 169 -237 350 -439 570 -634 344
-306 753 -536 1094 -618 125 -30 294 -52 394 -53 130 0 319 32 406 70 11 5 42
18 68 30 119 52 254 161 347 280 106 136 171 296 222 550 17 83 18 453 1 530
-6 30 -19 98 -28 150 -21 119 -84 348 -114 415 -5 11 -23 58 -41 105 -54 143
-175 384 -260 520 -5 8 -26 42 -47 75 -20 33 -41 62 -45 63 -4 2 -8 8 -8 14 0
12 -146 209 -230 308 -184 220 -368 397 -589 565 -65 49 -248 175 -255 175 -2
0 -33 17 -67 38 -89 54 -277 143 -379 181 -281 102 -598 138 -820 92z m530
-571 c222 -34 520 -190 819 -429 119 -95 325 -303 436 -441 170 -211 316 -448
416 -675 50 -113 61 -143 80 -200 11 -33 24 -67 28 -75 5 -9 12 -31 15 -50 4
-19 11 -44 16 -55 8 -18 18 -64 50 -229 27 -132 13 -322 -31 -446 -49 -138
-168 -236 -317 -261 -103 -17 -307 11 -384 52 -10 5 -22 9 -28 9 -17 0 -243
115 -317 162 -157 98 -310 217 -486 378 -107 98 -332 375 -442 545 -114 175
-219 385 -290 580 -20 55 -40 109 -45 120 -8 20 -18 57 -46 170 -8 33 -22 118
-31 189 -38 303 40 523 219 616 58 31 193 61 238 55 14 -2 59 -9 100 -15z"/>
</g>
</svg>
